<svg width="215" height="48" viewBox="0 0 215 48" fill="none" xmlns="http://www.w3.org/2000/svg">
<g filter="url(#filter0_d_35_69)">
<mask id="path-1-inside-1_35_69" fill="white">
<path d="M9.53125 37.3125C7.04427 37.3125 5.03906 36.5378 3.51562 34.9883C2.00521 33.4388 1.25 31.2708 1.25 28.4844V12.625C1.25 9.29167 1.90755 6.73958 3.22266 4.96875C4.55078 3.19792 6.70573 2.3125 9.6875 2.3125C11.3151 2.3125 12.7604 2.61198 14.0234 3.21094C15.2995 3.8099 16.3021 4.70833 17.0312 5.90625C17.7604 7.09115 18.125 8.58854 18.125 10.3984V16.3359H11.2891V11.2578C11.2891 10.2292 11.1589 9.53906 10.8984 9.1875C10.638 8.82292 10.2344 8.64062 9.6875 8.64062C9.04948 8.64062 8.61979 8.875 8.39844 9.34375C8.17708 9.79948 8.06641 10.4115 8.06641 11.1797V28.3867C8.06641 29.3372 8.20312 30.0078 8.47656 30.3984C8.76302 30.7891 9.16667 30.9844 9.6875 30.9844C10.2734 30.9844 10.6836 30.7435 10.918 30.2617C11.1654 29.7799 11.2891 29.1549 11.2891 28.3867V22.1953H18.2031V28.6992C18.2031 31.7201 17.4414 33.9141 15.918 35.2812C14.3945 36.6354 12.2656 37.3125 9.53125 37.3125ZM29.7062 37.3125C23.8729 37.3125 20.9562 34.2852 20.9562 28.2305V16.4727C20.9562 13.7122 21.731 11.5117 23.2805 9.87109C24.8299 8.21745 26.9719 7.39062 29.7062 7.39062C32.4536 7.39062 34.6021 8.21745 36.1516 9.87109C37.701 11.5117 38.4758 13.7122 38.4758 16.4727V28.2305C38.4758 34.2852 35.5526 37.3125 29.7062 37.3125ZM29.7062 31.9219C30.2922 31.9219 30.7089 31.7135 30.9562 31.2969C31.2167 30.8672 31.3469 30.3268 31.3469 29.6758V15.3594C31.3469 13.6536 30.8 12.8008 29.7062 12.8008C28.6125 12.8008 28.0656 13.6536 28.0656 15.3594V29.6758C28.0656 30.3268 28.1893 30.8672 28.4367 31.2969C28.6971 31.7135 29.1203 31.9219 29.7062 31.9219ZM41.8734 37V7.70312H48.7094V11.1016C49.0219 9.90365 49.5557 8.98568 50.3109 8.34766C51.0661 7.70964 52.1729 7.39062 53.6312 7.39062C54.8031 7.39062 55.7992 7.66406 56.6195 8.21094C57.4529 8.74479 58.0388 9.45443 58.3773 10.3398C58.9112 9.3763 59.5362 8.64714 60.2523 8.15234C60.9815 7.64453 62.0167 7.39062 63.3578 7.39062C64.9854 7.39062 66.2354 7.74219 67.1078 8.44531C67.9932 9.13542 68.6052 10.099 68.9437 11.3359C69.2953 12.5599 69.4711 13.9792 69.4711 15.5938V37H62.4984V15.4766C62.4984 13.5885 62.0167 12.6445 61.0531 12.6445C60.5453 12.6445 60.1547 12.8203 59.8812 13.1719C59.6078 13.5104 59.419 13.9336 59.3148 14.4414C59.2107 14.9492 59.1586 15.457 59.1586 15.9648V37H52.1859V15.4766C52.1859 14.8646 52.1078 14.2526 51.9516 13.6406C51.8083 13.0286 51.4307 12.7227 50.8187 12.7227C50.2979 12.7227 49.8943 12.9115 49.6078 13.2891C49.3214 13.6667 49.126 14.1354 49.0219 14.6953C48.9177 15.2422 48.8656 15.7826 48.8656 16.3164V37H41.8734ZM72.9859 5.90625V0.0859375H79.9781V5.90625H72.9859ZM72.9859 37V7.70312H79.9781V37H72.9859ZM83.5516 37V7.70312H90.5437V11.4336C90.8042 10.3138 91.2859 9.36328 91.9891 8.58203C92.7052 7.78776 93.6948 7.39062 94.9578 7.39062C96.9891 7.39062 98.4604 8.01562 99.3719 9.26562C100.296 10.5156 100.759 12.2279 100.759 14.4023V37H93.8641V15.125C93.8641 14.5521 93.7469 14.0247 93.5125 13.543C93.2781 13.0482 92.8745 12.8008 92.3016 12.8008C91.7677 12.8008 91.3706 12.9896 91.1102 13.3672C90.8628 13.7318 90.7065 14.194 90.6414 14.7539C90.5763 15.3008 90.5437 15.8477 90.5437 16.3945V37H83.5516ZM112.203 42.0781C110.849 42.0781 109.684 42.0065 108.707 41.8633C107.743 41.7331 106.878 41.4922 106.109 41.1406C105.341 40.7891 104.573 40.2943 103.805 39.6562L106.168 35.6133C107.874 36.6289 109.579 37.1367 111.285 37.1367C112.405 37.1367 113.238 36.7786 113.785 36.0625C114.332 35.3464 114.605 34.4154 114.605 33.2695V30.3984C114.046 32.4036 112.555 33.4062 110.133 33.4062C108.74 33.4062 107.613 33.0742 106.754 32.4102C105.895 31.7461 105.27 30.8477 104.879 29.7148C104.488 28.582 104.293 27.319 104.293 25.9258V15.3984C104.293 13.8229 104.462 12.4362 104.801 11.2383C105.139 10.0273 105.732 9.08333 106.578 8.40625C107.424 7.72917 108.609 7.39062 110.133 7.39062C111.422 7.39062 112.424 7.71615 113.141 8.36719C113.87 9.01823 114.358 9.89714 114.605 11.0039V7.70312H121.734V32.8203C121.734 36.1406 120.966 38.5104 119.43 39.9297C117.906 41.362 115.497 42.0781 112.203 42.0781ZM112.965 28.1328C114.059 28.1328 114.605 27.1432 114.605 25.1641V15.2031C114.605 14.6693 114.449 14.1224 114.137 13.5625C113.837 13.0026 113.421 12.7227 112.887 12.7227C112.21 12.7227 111.786 12.9766 111.617 13.4844C111.448 13.9792 111.363 14.5521 111.363 15.2031V25.1641C111.363 25.8672 111.448 26.5378 111.617 27.1758C111.799 27.8138 112.249 28.1328 112.965 28.1328ZM143.725 37.3125C140.587 37.3125 138.321 36.5312 136.928 34.9688C135.548 33.4062 134.858 30.9193 134.858 27.5078V24.1484H141.655V28.4453C141.655 29.2396 141.772 29.8646 142.006 30.3203C142.254 30.763 142.677 30.9844 143.276 30.9844C143.901 30.9844 144.33 30.8021 144.565 30.4375C144.812 30.0729 144.936 29.474 144.936 28.6406C144.936 27.5859 144.832 26.707 144.623 26.0039C144.415 25.2878 144.051 24.6107 143.53 23.9727C143.022 23.3216 142.312 22.5664 141.401 21.707L138.315 18.7773C136.01 16.6029 134.858 14.1159 134.858 11.3164C134.858 8.38672 135.535 6.15365 136.889 4.61719C138.256 3.08073 140.229 2.3125 142.807 2.3125C145.958 2.3125 148.191 3.15234 149.506 4.83203C150.834 6.51172 151.498 9.0638 151.498 12.4883H144.506V10.125C144.506 9.65625 144.37 9.29167 144.096 9.03125C143.836 8.77083 143.478 8.64062 143.022 8.64062C142.475 8.64062 142.071 8.79688 141.811 9.10938C141.564 9.40885 141.44 9.79948 141.44 10.2812C141.44 10.763 141.57 11.2839 141.83 11.8438C142.091 12.4036 142.605 13.0482 143.373 13.7773L147.338 17.5859C148.133 18.3411 148.862 19.1419 149.526 19.9883C150.19 20.8216 150.724 21.7982 151.127 22.918C151.531 24.0247 151.733 25.3789 151.733 26.9805C151.733 30.2096 151.134 32.7422 149.936 34.5781C148.751 36.401 146.681 37.3125 143.725 37.3125ZM163.236 37.3125C157.403 37.3125 154.486 34.2852 154.486 28.2305V16.4727C154.486 13.7122 155.261 11.5117 156.81 9.87109C158.36 8.21745 160.502 7.39062 163.236 7.39062C165.983 7.39062 168.132 8.21745 169.681 9.87109C171.231 11.5117 172.005 13.7122 172.005 16.4727V28.2305C172.005 34.2852 169.082 37.3125 163.236 37.3125ZM163.236 31.9219C163.822 31.9219 164.239 31.7135 164.486 31.2969C164.746 30.8672 164.877 30.3268 164.877 29.6758V15.3594C164.877 13.6536 164.33 12.8008 163.236 12.8008C162.142 12.8008 161.595 13.6536 161.595 15.3594V29.6758C161.595 30.3268 161.719 30.8672 161.966 31.2969C162.227 31.7135 162.65 31.9219 163.236 31.9219ZM183.919 37.3125C178.085 37.3125 175.169 34.2852 175.169 28.2305V16.4727C175.169 13.7122 175.943 11.5117 177.493 9.87109C179.042 8.21745 181.184 7.39062 183.919 7.39062C186.666 7.39062 188.815 8.21745 190.364 9.87109C191.914 11.5117 192.688 13.7122 192.688 16.4727V28.2305C192.688 34.2852 189.765 37.3125 183.919 37.3125ZM183.919 31.9219C184.505 31.9219 184.921 31.7135 185.169 31.2969C185.429 30.8672 185.559 30.3268 185.559 29.6758V15.3594C185.559 13.6536 185.012 12.8008 183.919 12.8008C182.825 12.8008 182.278 13.6536 182.278 15.3594V29.6758C182.278 30.3268 182.402 30.8672 182.649 31.2969C182.91 31.7135 183.333 31.9219 183.919 31.9219ZM196.086 37V7.70312H203.078V11.4336C203.339 10.3138 203.82 9.36328 204.523 8.58203C205.24 7.78776 206.229 7.39062 207.492 7.39062C209.523 7.39062 210.995 8.01562 211.906 9.26562C212.831 10.5156 213.293 12.2279 213.293 14.4023V37H206.398V15.125C206.398 14.5521 206.281 14.0247 206.047 13.543C205.812 13.0482 205.409 12.8008 204.836 12.8008C204.302 12.8008 203.905 12.9896 203.645 13.3672C203.397 13.7318 203.241 14.194 203.176 14.7539C203.111 15.3008 203.078 15.8477 203.078 16.3945V37H196.086Z"/>
</mask>
<path d="M9.53125 37.3125C7.04427 37.3125 5.03906 36.5378 3.51562 34.9883C2.00521 33.4388 1.25 31.2708 1.25 28.4844V12.625C1.25 9.29167 1.90755 6.73958 3.22266 4.96875C4.55078 3.19792 6.70573 2.3125 9.6875 2.3125C11.3151 2.3125 12.7604 2.61198 14.0234 3.21094C15.2995 3.8099 16.3021 4.70833 17.0312 5.90625C17.7604 7.09115 18.125 8.58854 18.125 10.3984V16.3359H11.2891V11.2578C11.2891 10.2292 11.1589 9.53906 10.8984 9.1875C10.638 8.82292 10.2344 8.64062 9.6875 8.64062C9.04948 8.64062 8.61979 8.875 8.39844 9.34375C8.17708 9.79948 8.06641 10.4115 8.06641 11.1797V28.3867C8.06641 29.3372 8.20312 30.0078 8.47656 30.3984C8.76302 30.7891 9.16667 30.9844 9.6875 30.9844C10.2734 30.9844 10.6836 30.7435 10.918 30.2617C11.1654 29.7799 11.2891 29.1549 11.2891 28.3867V22.1953H18.2031V28.6992C18.2031 31.7201 17.4414 33.9141 15.918 35.2812C14.3945 36.6354 12.2656 37.3125 9.53125 37.3125ZM29.7062 37.3125C23.8729 37.3125 20.9562 34.2852 20.9562 28.2305V16.4727C20.9562 13.7122 21.731 11.5117 23.2805 9.87109C24.8299 8.21745 26.9719 7.39062 29.7062 7.39062C32.4536 7.39062 34.6021 8.21745 36.1516 9.87109C37.701 11.5117 38.4758 13.7122 38.4758 16.4727V28.2305C38.4758 34.2852 35.5526 37.3125 29.7062 37.3125ZM29.7062 31.9219C30.2922 31.9219 30.7089 31.7135 30.9562 31.2969C31.2167 30.8672 31.3469 30.3268 31.3469 29.6758V15.3594C31.3469 13.6536 30.8 12.8008 29.7062 12.8008C28.6125 12.8008 28.0656 13.6536 28.0656 15.3594V29.6758C28.0656 30.3268 28.1893 30.8672 28.4367 31.2969C28.6971 31.7135 29.1203 31.9219 29.7062 31.9219ZM41.8734 37V7.70312H48.7094V11.1016C49.0219 9.90365 49.5557 8.98568 50.3109 8.34766C51.0661 7.70964 52.1729 7.39062 53.6312 7.39062C54.8031 7.39062 55.7992 7.66406 56.6195 8.21094C57.4529 8.74479 58.0388 9.45443 58.3773 10.3398C58.9112 9.3763 59.5362 8.64714 60.2523 8.15234C60.9815 7.64453 62.0167 7.39062 63.3578 7.39062C64.9854 7.39062 66.2354 7.74219 67.1078 8.44531C67.9932 9.13542 68.6052 10.099 68.9437 11.3359C69.2953 12.5599 69.4711 13.9792 69.4711 15.5938V37H62.4984V15.4766C62.4984 13.5885 62.0167 12.6445 61.0531 12.6445C60.5453 12.6445 60.1547 12.8203 59.8812 13.1719C59.6078 13.5104 59.419 13.9336 59.3148 14.4414C59.2107 14.9492 59.1586 15.457 59.1586 15.9648V37H52.1859V15.4766C52.1859 14.8646 52.1078 14.2526 51.9516 13.6406C51.8083 13.0286 51.4307 12.7227 50.8187 12.7227C50.2979 12.7227 49.8943 12.9115 49.6078 13.2891C49.3214 13.6667 49.126 14.1354 49.0219 14.6953C48.9177 15.2422 48.8656 15.7826 48.8656 16.3164V37H41.8734ZM72.9859 5.90625V0.0859375H79.9781V5.90625H72.9859ZM72.9859 37V7.70312H79.9781V37H72.9859ZM83.5516 37V7.70312H90.5437V11.4336C90.8042 10.3138 91.2859 9.36328 91.9891 8.58203C92.7052 7.78776 93.6948 7.39062 94.9578 7.39062C96.9891 7.39062 98.4604 8.01562 99.3719 9.26562C100.296 10.5156 100.759 12.2279 100.759 14.4023V37H93.8641V15.125C93.8641 14.5521 93.7469 14.0247 93.5125 13.543C93.2781 13.0482 92.8745 12.8008 92.3016 12.8008C91.7677 12.8008 91.3706 12.9896 91.1102 13.3672C90.8628 13.7318 90.7065 14.194 90.6414 14.7539C90.5763 15.3008 90.5437 15.8477 90.5437 16.3945V37H83.5516ZM112.203 42.0781C110.849 42.0781 109.684 42.0065 108.707 41.8633C107.743 41.7331 106.878 41.4922 106.109 41.1406C105.341 40.7891 104.573 40.2943 103.805 39.6562L106.168 35.6133C107.874 36.6289 109.579 37.1367 111.285 37.1367C112.405 37.1367 113.238 36.7786 113.785 36.0625C114.332 35.3464 114.605 34.4154 114.605 33.2695V30.3984C114.046 32.4036 112.555 33.4062 110.133 33.4062C108.74 33.4062 107.613 33.0742 106.754 32.4102C105.895 31.7461 105.27 30.8477 104.879 29.7148C104.488 28.582 104.293 27.319 104.293 25.9258V15.3984C104.293 13.8229 104.462 12.4362 104.801 11.2383C105.139 10.0273 105.732 9.08333 106.578 8.40625C107.424 7.72917 108.609 7.39062 110.133 7.39062C111.422 7.39062 112.424 7.71615 113.141 8.36719C113.87 9.01823 114.358 9.89714 114.605 11.0039V7.70312H121.734V32.8203C121.734 36.1406 120.966 38.5104 119.43 39.9297C117.906 41.362 115.497 42.0781 112.203 42.0781ZM112.965 28.1328C114.059 28.1328 114.605 27.1432 114.605 25.1641V15.2031C114.605 14.6693 114.449 14.1224 114.137 13.5625C113.837 13.0026 113.421 12.7227 112.887 12.7227C112.21 12.7227 111.786 12.9766 111.617 13.4844C111.448 13.9792 111.363 14.5521 111.363 15.2031V25.1641C111.363 25.8672 111.448 26.5378 111.617 27.1758C111.799 27.8138 112.249 28.1328 112.965 28.1328ZM143.725 37.3125C140.587 37.3125 138.321 36.5312 136.928 34.9688C135.548 33.4062 134.858 30.9193 134.858 27.5078V24.1484H141.655V28.4453C141.655 29.2396 141.772 29.8646 142.006 30.3203C142.254 30.763 142.677 30.9844 143.276 30.9844C143.901 30.9844 144.33 30.8021 144.565 30.4375C144.812 30.0729 144.936 29.474 144.936 28.6406C144.936 27.5859 144.832 26.707 144.623 26.0039C144.415 25.2878 144.051 24.6107 143.53 23.9727C143.022 23.3216 142.312 22.5664 141.401 21.707L138.315 18.7773C136.01 16.6029 134.858 14.1159 134.858 11.3164C134.858 8.38672 135.535 6.15365 136.889 4.61719C138.256 3.08073 140.229 2.3125 142.807 2.3125C145.958 2.3125 148.191 3.15234 149.506 4.83203C150.834 6.51172 151.498 9.0638 151.498 12.4883H144.506V10.125C144.506 9.65625 144.37 9.29167 144.096 9.03125C143.836 8.77083 143.478 8.64062 143.022 8.64062C142.475 8.64062 142.071 8.79688 141.811 9.10938C141.564 9.40885 141.44 9.79948 141.44 10.2812C141.44 10.763 141.57 11.2839 141.83 11.8438C142.091 12.4036 142.605 13.0482 143.373 13.7773L147.338 17.5859C148.133 18.3411 148.862 19.1419 149.526 19.9883C150.19 20.8216 150.724 21.7982 151.127 22.918C151.531 24.0247 151.733 25.3789 151.733 26.9805C151.733 30.2096 151.134 32.7422 149.936 34.5781C148.751 36.401 146.681 37.3125 143.725 37.3125ZM163.236 37.3125C157.403 37.3125 154.486 34.2852 154.486 28.2305V16.4727C154.486 13.7122 155.261 11.5117 156.81 9.87109C158.36 8.21745 160.502 7.39062 163.236 7.39062C165.983 7.39062 168.132 8.21745 169.681 9.87109C171.231 11.5117 172.005 13.7122 172.005 16.4727V28.2305C172.005 34.2852 169.082 37.3125 163.236 37.3125ZM163.236 31.9219C163.822 31.9219 164.239 31.7135 164.486 31.2969C164.746 30.8672 164.877 30.3268 164.877 29.6758V15.3594C164.877 13.6536 164.33 12.8008 163.236 12.8008C162.142 12.8008 161.595 13.6536 161.595 15.3594V29.6758C161.595 30.3268 161.719 30.8672 161.966 31.2969C162.227 31.7135 162.65 31.9219 163.236 31.9219ZM183.919 37.3125C178.085 37.3125 175.169 34.2852 175.169 28.2305V16.4727C175.169 13.7122 175.943 11.5117 177.493 9.87109C179.042 8.21745 181.184 7.39062 183.919 7.39062C186.666 7.39062 188.815 8.21745 190.364 9.87109C191.914 11.5117 192.688 13.7122 192.688 16.4727V28.2305C192.688 34.2852 189.765 37.3125 183.919 37.3125ZM183.919 31.9219C184.505 31.9219 184.921 31.7135 185.169 31.2969C185.429 30.8672 185.559 30.3268 185.559 29.6758V15.3594C185.559 13.6536 185.012 12.8008 183.919 12.8008C182.825 12.8008 182.278 13.6536 182.278 15.3594V29.6758C182.278 30.3268 182.402 30.8672 182.649 31.2969C182.91 31.7135 183.333 31.9219 183.919 31.9219ZM196.086 37V7.70312H203.078V11.4336C203.339 10.3138 203.82 9.36328 204.523 8.58203C205.24 7.78776 206.229 7.39062 207.492 7.39062C209.523 7.39062 210.995 8.01562 211.906 9.26562C212.831 10.5156 213.293 12.2279 213.293 14.4023V37H206.398V15.125C206.398 14.5521 206.281 14.0247 206.047 13.543C205.812 13.0482 205.409 12.8008 204.836 12.8008C204.302 12.8008 203.905 12.9896 203.645 13.3672C203.397 13.7318 203.241 14.194 203.176 14.7539C203.111 15.3008 203.078 15.8477 203.078 16.3945V37H196.086Z" fill="white"/>
<path d="M3.51562 34.9883L2.79954 35.6863L2.80255 35.6894L3.51562 34.9883ZM3.22266 4.96875L2.42265 4.36874L2.41983 4.37253L3.22266 4.96875ZM14.0234 3.21094L13.5949 4.11449L13.5985 4.11617L14.0234 3.21094ZM17.0312 5.90625L16.177 6.4262L16.1796 6.43035L17.0312 5.90625ZM18.125 16.3359V17.3359H19.125V16.3359H18.125ZM11.2891 16.3359H10.2891V17.3359H11.2891V16.3359ZM10.8984 9.1875L10.0847 9.76874L10.0897 9.77578L10.0949 9.78273L10.8984 9.1875ZM8.39844 9.34375L9.298 9.78068L9.30269 9.77076L8.39844 9.34375ZM8.47656 30.3984L7.65733 30.9719L7.66365 30.9809L7.67016 30.9898L8.47656 30.3984ZM10.918 30.2617L10.0284 29.8049L10.0235 29.8145L10.0187 29.8243L10.918 30.2617ZM11.2891 22.1953V21.1953H10.2891V22.1953H11.2891ZM18.2031 22.1953H19.2031V21.1953H18.2031V22.1953ZM15.918 35.2812L16.5823 36.0287L16.5859 36.0255L15.918 35.2812ZM9.53125 36.3125C7.27023 36.3125 5.53648 35.6173 4.2287 34.2872L2.80255 35.6894C4.54165 37.4582 6.81831 38.3125 9.53125 38.3125V36.3125ZM4.2317 34.2903C2.95143 32.9769 2.25 31.0882 2.25 28.4844H0.25C0.25 31.4535 1.05898 33.9007 2.79955 35.6863L4.2317 34.2903ZM2.25 28.4844V12.625H0.25V28.4844H2.25ZM2.25 12.625C2.25 9.4025 2.88894 7.09536 4.02548 5.56497L2.41983 4.37253C0.926164 6.38381 0.25 9.18083 0.25 12.625H2.25ZM4.02266 5.56875C5.10085 4.13116 6.90246 3.3125 9.6875 3.3125V1.3125C6.509 1.3125 4.00072 2.26467 2.42266 4.36875L4.02266 5.56875ZM9.6875 3.3125C11.1911 3.3125 12.4862 3.58866 13.595 4.11449L14.4519 2.30739C13.0347 1.63529 11.4391 1.3125 9.6875 1.3125V3.3125ZM13.5985 4.11617C14.6977 4.63212 15.5506 5.39701 16.1771 6.4262L17.8854 5.3863C17.0536 4.01966 15.9012 2.98767 14.4483 2.3057L13.5985 4.11617ZM16.1796 6.43035C16.7867 7.41684 17.125 8.719 17.125 10.3984H19.125C19.125 8.45809 18.7342 6.76546 17.8829 5.38215L16.1796 6.43035ZM17.125 10.3984V16.3359H19.125V10.3984H17.125ZM18.125 15.3359H11.2891V17.3359H18.125V15.3359ZM12.2891 16.3359V11.2578H10.2891V16.3359H12.2891ZM12.2891 11.2578C12.2891 10.7071 12.2547 10.2105 12.1741 9.78334C12.096 9.36976 11.9604 8.9411 11.702 8.59227L10.0949 9.78273C10.092 9.77877 10.1085 9.80032 10.133 9.86577C10.1572 9.93035 10.1842 10.0242 10.2087 10.1542C10.2584 10.4171 10.2891 10.7799 10.2891 11.2578H12.2891ZM11.7122 8.60626C11.2218 7.91967 10.477 7.64062 9.6875 7.64062V9.64062C9.99179 9.64062 10.0543 9.72616 10.0847 9.76874L11.7122 8.60626ZM9.6875 7.64062C9.25042 7.64062 8.80749 7.72053 8.40787 7.93851C7.99569 8.16334 7.68964 8.50285 7.49419 8.91674L9.30269 9.77076C9.32859 9.7159 9.34806 9.70385 9.36557 9.6943C9.39563 9.67791 9.48656 9.64062 9.6875 9.64062V7.64062ZM7.49893 8.90685C7.18615 9.55079 7.06641 10.3312 7.06641 11.1797H9.06641C9.06641 10.4917 9.16801 10.0482 9.29795 9.78065L7.49893 8.90685ZM7.06641 11.1797V28.3867H9.06641V11.1797H7.06641ZM7.06641 28.3867C7.06641 29.3729 7.19662 30.3137 7.65733 30.9719L9.29579 29.825C9.20963 29.7019 9.06641 29.3016 9.06641 28.3867H7.06641ZM7.67016 30.9898C8.16093 31.659 8.87607 31.9844 9.6875 31.9844V29.9844C9.45727 29.9844 9.36511 29.9191 9.28297 29.8071L7.67016 30.9898ZM9.6875 31.9844C10.1175 31.9844 10.5505 31.8953 10.941 31.666C11.3369 31.4335 11.6251 31.0941 11.8172 30.6992L10.0187 29.8243C9.9765 29.9111 9.94236 29.9331 9.92815 29.9414C9.9085 29.953 9.84345 29.9844 9.6875 29.9844V31.9844ZM11.8075 30.7185C12.1514 30.0488 12.2891 29.2515 12.2891 28.3867H10.2891C10.2891 29.0584 10.1793 29.5111 10.0284 29.8049L11.8075 30.7185ZM12.2891 28.3867V22.1953H10.2891V28.3867H12.2891ZM11.2891 23.1953H18.2031V21.1953H11.2891V23.1953ZM17.2031 22.1953V28.6992H19.2031V22.1953H17.2031ZM17.2031 28.6992C17.2031 31.5728 16.4782 33.4348 15.2501 34.537L16.5859 36.0255C18.4046 34.3933 19.2031 31.8673 19.2031 28.6992H17.2031ZM15.2536 34.5338C13.9679 35.6766 12.1054 36.3125 9.53125 36.3125V38.3125C12.4258 38.3125 14.8211 37.5942 16.5823 36.0287L15.2536 34.5338ZM23.2805 9.87109L24.0075 10.5577L24.0102 10.5548L23.2805 9.87109ZM36.1516 9.87109L35.4218 10.5548L35.4245 10.5577L36.1516 9.87109ZM30.9562 31.2969L30.101 30.7786L30.0964 30.7863L30.9562 31.2969ZM28.4367 31.2969L27.5701 31.7958L27.5791 31.8115L27.5887 31.8269L28.4367 31.2969ZM29.7062 36.3125C26.9534 36.3125 25.0701 35.6002 23.8639 34.3482C22.651 33.0892 21.9562 31.1128 21.9562 28.2305H19.9562C19.9562 31.4028 20.7198 33.9674 22.4236 35.7358C24.134 37.5112 26.6258 38.3125 29.7062 38.3125V36.3125ZM21.9562 28.2305V16.4727H19.9562V28.2305H21.9562ZM21.9562 16.4727C21.9562 13.9075 22.6706 11.9732 24.0075 10.5577L22.5535 9.18447C20.7913 11.0502 19.9562 13.517 19.9562 16.4727H21.9562ZM24.0102 10.5548C25.3322 9.14395 27.1867 8.39062 29.7062 8.39062V6.39062C26.7571 6.39062 24.3277 7.29095 22.5508 9.18734L24.0102 10.5548ZM29.7062 8.39062C32.2404 8.39062 34.1007 9.14493 35.4218 10.5548L36.8813 9.18734C35.1034 7.28997 32.6668 6.39062 29.7062 6.39062V8.39062ZM35.4245 10.5577C36.7614 11.9732 37.4758 13.9075 37.4758 16.4727H39.4758C39.4758 13.517 38.6407 11.0502 36.8786 9.18447L35.4245 10.5577ZM37.4758 16.4727V28.2305H39.4758V16.4727H37.4758ZM37.4758 28.2305C37.4758 31.1123 36.7797 33.0884 35.564 34.3474C34.3546 35.5998 32.4662 36.3125 29.7062 36.3125V38.3125C32.7926 38.3125 35.289 37.5115 37.0028 35.7366C38.7103 33.9683 39.4758 31.4034 39.4758 28.2305H37.4758ZM29.7062 32.9219C30.5586 32.9219 31.3484 32.5952 31.8161 31.8074L30.0964 30.7863C30.0693 30.8319 30.0258 30.9219 29.7062 30.9219V32.9219ZM31.8114 31.8152C32.1907 31.1894 32.3469 30.4566 32.3469 29.6758H30.3469C30.3469 30.1971 30.2426 30.545 30.1011 30.7786L31.8114 31.8152ZM32.3469 29.6758V15.3594H30.3469V29.6758H32.3469ZM32.3469 15.3594C32.3469 14.4317 32.204 13.5642 31.7785 12.9006C31.3044 12.1612 30.5614 11.8008 29.7062 11.8008V13.8008C29.9448 13.8008 30.0222 13.8668 30.0949 13.9802C30.2163 14.1696 30.3469 14.5813 30.3469 15.3594H32.3469ZM29.7062 11.8008C28.8511 11.8008 28.1081 12.1612 27.634 12.9006C27.2085 13.5642 27.0656 14.4317 27.0656 15.3594H29.0656C29.0656 14.5813 29.1962 14.1696 29.3176 13.9802C29.3903 13.8668 29.4677 13.8008 29.7062 13.8008V11.8008ZM27.0656 15.3594V29.6758H29.0656V15.3594H27.0656ZM27.0656 29.6758C27.0656 30.4487 27.2121 31.1741 27.5701 31.7958L29.3033 30.7979C29.1665 30.5603 29.0656 30.205 29.0656 29.6758H27.0656ZM27.5887 31.8269C28.0694 32.596 28.8529 32.9219 29.7062 32.9219V30.9219C29.3878 30.9219 29.3248 30.8311 29.2847 30.7669L27.5887 31.8269ZM41.8734 37H40.8734V38H41.8734V37ZM41.8734 7.70312V6.70312H40.8734V7.70312H41.8734ZM48.7094 7.70312H49.7094V6.70312H48.7094V7.70312ZM48.7094 11.1016H47.7094L49.677 11.354L48.7094 11.1016ZM50.3109 8.34766L50.9563 9.11154L50.3109 8.34766ZM56.6195 8.21094L56.0648 9.04299L56.0724 9.04805L56.0801 9.05297L56.6195 8.21094ZM58.3773 10.3398L57.4433 10.697L58.2107 12.704L59.2521 10.8245L58.3773 10.3398ZM60.2523 8.15234L60.8208 8.97508L60.8238 8.97295L60.2523 8.15234ZM67.1078 8.44531L66.4803 9.22391L66.4866 9.22903L66.4931 9.23404L67.1078 8.44531ZM68.9437 11.3359L67.9791 11.5999L67.9826 11.612L68.9437 11.3359ZM69.4711 37V38H70.4711V37H69.4711ZM62.4984 37H61.4984V38H62.4984V37ZM59.8812 13.1719L60.6592 13.8002L60.665 13.7931L60.6706 13.7858L59.8812 13.1719ZM59.1586 37V38H60.1586V37H59.1586ZM52.1859 37H51.1859V38H52.1859V37ZM51.9516 13.6406L50.9779 13.8685L50.9802 13.8783L50.9826 13.888L51.9516 13.6406ZM49.0219 14.6953L50.0042 14.8824L50.005 14.8782L49.0219 14.6953ZM48.8656 37V38H49.8656V37H48.8656ZM42.8734 37V7.70312H40.8734V37H42.8734ZM41.8734 8.70312H48.7094V6.70312H41.8734V8.70312ZM47.7094 7.70312V11.1016H49.7094V7.70312H47.7094ZM49.677 11.354C49.9506 10.305 50.3945 9.58616 50.9563 9.11154L49.6656 7.58377C48.717 8.38519 48.0931 9.50229 47.7418 10.8491L49.677 11.354ZM50.9563 9.11154C51.4623 8.68402 52.3002 8.39062 53.6312 8.39062V6.39062C52.0457 6.39062 50.67 6.73525 49.6656 7.58377L50.9563 9.11154ZM53.6312 8.39062C54.6436 8.39062 55.4377 8.62492 56.0648 9.04299L57.1742 7.37889C56.1607 6.70321 54.9626 6.39062 53.6312 6.39062V8.39062ZM56.0801 9.05297C56.7419 9.47695 57.1846 10.0204 57.4433 10.697L59.3114 9.98271C58.893 8.88844 58.1638 8.01264 57.159 7.36891L56.0801 9.05297ZM59.2521 10.8245C59.7305 9.96093 60.2605 9.36216 60.8208 8.97507L59.6839 7.32961C58.8119 7.93211 58.0919 8.79167 57.5026 9.85521L59.2521 10.8245ZM60.8238 8.97295C61.3198 8.62756 62.1231 8.39062 63.3578 8.39062V6.39062C61.9102 6.39062 60.6432 6.6615 59.6808 7.33174L60.8238 8.97295ZM63.3578 8.39062C64.8574 8.39062 65.8506 8.71639 66.4803 9.22391L67.7353 7.66672C66.6202 6.76798 65.1134 6.39062 63.3578 6.39062V8.39062ZM66.4931 9.23404C67.1847 9.77309 67.6892 10.5401 67.9792 11.5999L69.9083 11.072C69.5213 9.65784 68.8018 8.49774 67.7226 7.65659L66.4931 9.23404ZM67.9826 11.612C68.3026 12.726 68.4711 14.0488 68.4711 15.5938H70.4711C70.4711 13.9095 70.288 12.3938 69.9049 11.0599L67.9826 11.612ZM68.4711 15.5938V37H70.4711V15.5938H68.4711ZM69.4711 36H62.4984V38H69.4711V36ZM63.4984 37V15.4766H61.4984V37H63.4984ZM63.4984 15.4766C63.4984 14.4799 63.3767 13.5815 63.0278 12.898C62.846 12.5418 62.5888 12.2172 62.2323 11.9843C61.8705 11.748 61.4648 11.6445 61.0531 11.6445V13.6445C61.0915 13.6445 61.113 13.6492 61.1223 13.6518C61.1308 13.6541 61.135 13.6564 61.1386 13.6588C61.1434 13.6619 61.1873 13.6913 61.2464 13.8071C61.3793 14.0676 61.4984 14.5852 61.4984 15.4766H63.4984ZM61.0531 11.6445C60.2858 11.6445 59.583 11.9265 59.0919 12.5579L60.6706 13.7858C60.7264 13.7141 60.8048 13.6445 61.0531 13.6445V11.6445ZM59.1033 12.5435C58.712 13.028 58.4654 13.6059 58.3352 14.2405L60.2944 14.6424C60.3726 14.2613 60.5036 13.9928 60.6592 13.8002L59.1033 12.5435ZM58.3352 14.2405C58.2178 14.813 58.1586 15.3881 58.1586 15.9648H60.1586C60.1586 15.5259 60.2036 15.0854 60.2944 14.6424L58.3352 14.2405ZM58.1586 15.9648V37H60.1586V15.9648H58.1586ZM59.1586 36H52.1859V38H59.1586V36ZM53.1859 37V15.4766H51.1859V37H53.1859ZM53.1859 15.4766C53.1859 14.7785 53.0967 14.0835 52.9205 13.3932L50.9826 13.888C51.1189 14.4217 51.1859 14.9507 51.1859 15.4766H53.1859ZM52.9253 13.4127C52.818 12.9545 52.5966 12.5043 52.1905 12.1752C51.7816 11.8438 51.2932 11.7227 50.8187 11.7227V13.7227C50.8893 13.7227 50.9259 13.7315 50.9384 13.7354C50.9484 13.7385 50.9423 13.738 50.9314 13.7291C50.9029 13.706 50.9419 13.7148 50.9779 13.8685L52.9253 13.4127ZM50.8187 11.7227C50.0207 11.7227 49.3072 12.0308 48.8111 12.6847L50.4045 13.8934C50.4813 13.7922 50.5751 13.7227 50.8187 13.7227V11.7227ZM48.8111 12.6847C48.4134 13.2089 48.1657 13.83 48.0387 14.5124L50.005 14.8782C50.0864 14.4409 50.2293 14.1244 50.4045 13.8934L48.8111 12.6847ZM48.0395 14.5082C47.9241 15.1141 47.8656 15.7171 47.8656 16.3164H49.8656C49.8656 15.848 49.9113 15.3703 50.0042 14.8824L48.0395 14.5082ZM47.8656 16.3164V37H49.8656V16.3164H47.8656ZM48.8656 36H41.8734V38H48.8656V36ZM72.9859 5.90625H71.9859V6.90625H72.9859V5.90625ZM72.9859 0.0859375V-0.914062H71.9859V0.0859375H72.9859ZM79.9781 0.0859375H80.9781V-0.914062H79.9781V0.0859375ZM79.9781 5.90625V6.90625H80.9781V5.90625H79.9781ZM72.9859 37H71.9859V38H72.9859V37ZM72.9859 7.70312V6.70312H71.9859V7.70312H72.9859ZM79.9781 7.70312H80.9781V6.70312H79.9781V7.70312ZM79.9781 37V38H80.9781V37H79.9781ZM73.9859 5.90625V0.0859375H71.9859V5.90625H73.9859ZM72.9859 1.08594H79.9781V-0.914062H72.9859V1.08594ZM78.9781 0.0859375V5.90625H80.9781V0.0859375H78.9781ZM79.9781 4.90625H72.9859V6.90625H79.9781V4.90625ZM73.9859 37V7.70312H71.9859V37H73.9859ZM72.9859 8.70312H79.9781V6.70312H72.9859V8.70312ZM78.9781 7.70312V37H80.9781V7.70312H78.9781ZM79.9781 36H72.9859V38H79.9781V36ZM83.5516 37H82.5516V38H83.5516V37ZM83.5516 7.70312V6.70312H82.5516V7.70312H83.5516ZM90.5437 7.70312H91.5437V6.70312H90.5437V7.70312ZM90.5437 11.4336H89.5437L91.5178 11.6601L90.5437 11.4336ZM91.9891 8.58203L91.2464 7.91239L91.2458 7.91307L91.9891 8.58203ZM99.3719 9.26562L98.5638 9.85481L98.5679 9.86025L99.3719 9.26562ZM100.759 37V38H101.759V37H100.759ZM93.8641 37H92.8641V38H93.8641V37ZM93.5125 13.543L92.6087 13.9711L92.6133 13.9804L93.5125 13.543ZM91.1102 13.3672L90.2869 12.7994L90.2827 12.8057L91.1102 13.3672ZM90.6414 14.7539L91.6344 14.8721L91.6347 14.8694L90.6414 14.7539ZM90.5437 37V38H91.5437V37H90.5437ZM84.5516 37V7.70312H82.5516V37H84.5516ZM83.5516 8.70312H90.5437V6.70312H83.5516V8.70312ZM89.5437 7.70312V11.4336H91.5437V7.70312H89.5437ZM91.5178 11.6601C91.7436 10.6891 92.1527 9.89508 92.7324 9.251L91.2458 7.91307C90.4192 8.83148 89.8648 9.93851 89.5697 11.2071L91.5178 11.6601ZM92.7318 9.25167C93.2237 8.70603 93.9219 8.39062 94.9578 8.39062V6.39062C93.4677 6.39062 92.1867 6.86949 91.2464 7.91239L92.7318 9.25167ZM94.9578 8.39062C96.7792 8.39062 97.897 8.94031 98.5639 9.8548L100.18 8.67645C99.0238 7.09094 97.1989 6.39062 94.9578 6.39062V8.39062ZM98.5679 9.86025C99.3232 10.8815 99.7586 12.3588 99.7586 14.4023H101.759C101.759 12.097 101.27 10.1497 100.176 8.671L98.5679 9.86025ZM99.7586 14.4023V37H101.759V14.4023H99.7586ZM100.759 36H93.8641V38H100.759V36ZM94.8641 37V15.125H92.8641V37H94.8641ZM94.8641 15.125C94.8641 14.4112 94.717 13.7329 94.4117 13.1055L92.6133 13.9804C92.7768 14.3166 92.8641 14.6929 92.8641 15.125H94.8641ZM94.4162 13.1149C94.2292 12.7201 93.9486 12.374 93.5565 12.1337C93.1673 11.8952 92.7336 11.8008 92.3016 11.8008V13.8008C92.4425 13.8008 92.497 13.8301 92.5114 13.8389C92.523 13.846 92.5614 13.8711 92.6088 13.9711L94.4162 13.1149ZM92.3016 11.8008C91.501 11.8008 90.7667 12.1038 90.2869 12.7995L91.9334 13.9349C91.9744 13.8754 92.0344 13.8008 92.3016 13.8008V11.8008ZM90.2827 12.8057C89.9232 13.3354 89.7267 13.9621 89.6481 14.6384L91.6347 14.8694C91.6863 14.4259 91.8023 14.1281 91.9376 13.9287L90.2827 12.8057ZM89.6484 14.6357C89.5787 15.2215 89.5437 15.8079 89.5437 16.3945H91.5437C91.5437 15.8874 91.5739 15.38 91.6344 14.8721L89.6484 14.6357ZM89.5437 16.3945V37H91.5437V16.3945H89.5437ZM90.5437 36H83.5516V38H90.5437V36ZM108.707 41.8633L108.852 40.8738L108.841 40.8723L108.707 41.8633ZM106.109 41.1406L105.693 42.0499L106.109 41.1406ZM103.805 39.6562L102.941 39.1516L102.513 39.8837L103.166 40.4255L103.805 39.6562ZM106.168 35.6133L106.68 34.7541L105.813 34.2383L105.305 35.1086L106.168 35.6133ZM114.605 30.3984H115.605L113.642 30.1295L114.605 30.3984ZM104.801 11.2383L105.763 11.5102L105.764 11.5075L104.801 11.2383ZM113.141 8.36719L112.468 9.10716L112.475 9.11312L113.141 8.36719ZM114.605 11.0039L113.63 11.2221L115.605 11.0039H114.605ZM114.605 7.70312V6.70312H113.605V7.70312H114.605ZM121.734 7.70312H122.734V6.70312H121.734V7.70312ZM119.43 39.9297L118.751 39.1951L118.745 39.2011L119.43 39.9297ZM114.137 13.5625L113.255 14.0342L113.259 14.042L113.264 14.0499L114.137 13.5625ZM111.617 13.4844L112.563 13.8081L112.566 13.8006L111.617 13.4844ZM111.617 27.1758L110.651 27.4322L110.653 27.4414L110.656 27.4505L111.617 27.1758ZM112.203 41.0781C110.881 41.0781 109.767 41.008 108.852 40.8739L108.562 42.8527C109.6 43.005 110.817 43.0781 112.203 43.0781V41.0781ZM108.841 40.8723C107.961 40.7533 107.192 40.5363 106.525 40.2313L105.693 42.0499C106.563 42.4481 107.526 42.7128 108.573 42.8543L108.841 40.8723ZM106.525 40.2313C105.85 39.9223 105.156 39.4786 104.444 38.887L103.166 40.4255C103.99 41.1099 104.832 41.6558 105.693 42.0499L106.525 40.2313ZM104.668 40.1609L107.031 36.1179L105.305 35.1086L102.941 39.1516L104.668 40.1609ZM105.656 36.4725C107.491 37.565 109.372 38.1367 111.285 38.1367V36.1367C109.787 36.1367 108.256 35.6928 106.68 34.7541L105.656 36.4725ZM111.285 38.1367C112.633 38.1367 113.798 37.6931 114.58 36.6694L112.99 35.4556C112.678 35.8642 112.177 36.1367 111.285 36.1367V38.1367ZM114.58 36.6694C115.292 35.7365 115.605 34.5744 115.605 33.2695H113.605C113.605 34.2563 113.372 34.9563 112.99 35.4556L114.58 36.6694ZM115.605 33.2695V30.3984H113.605V33.2695H115.605ZM113.642 30.1295C113.416 30.9414 113.027 31.4767 112.509 31.8245C111.977 32.1823 111.213 32.4062 110.133 32.4062V34.4062C111.475 34.4062 112.667 34.1289 113.625 33.4841C114.599 32.8293 115.235 31.8607 115.569 30.6674L113.642 30.1295ZM110.133 32.4062C108.898 32.4062 108.005 32.1135 107.365 31.6189L106.142 33.2014C107.221 34.035 108.582 34.4062 110.133 34.4062V32.4062ZM107.365 31.6189C106.676 31.0862 106.158 30.3571 105.824 29.3889L103.934 30.0408C104.381 31.3382 105.113 32.406 106.142 33.2014L107.365 31.6189ZM105.824 29.3889C105.475 28.3764 105.293 27.2257 105.293 25.9258H103.293C103.293 27.4123 103.501 28.7876 103.934 30.0408L105.824 29.3889ZM105.293 25.9258V15.3984H103.293V25.9258H105.293ZM105.293 15.3984C105.293 13.8917 105.455 12.5999 105.763 11.5102L103.838 10.9663C103.469 12.2725 103.293 13.7541 103.293 15.3984H105.293ZM105.764 11.5075C106.055 10.465 106.545 9.7132 107.203 9.18712L105.953 7.62538C104.918 8.45346 104.223 9.58972 103.838 10.969L105.764 11.5075ZM107.203 9.18712C107.812 8.69961 108.746 8.39062 110.133 8.39062V6.39062C108.473 6.39062 107.037 6.75873 105.953 7.62538L107.203 9.18712ZM110.133 8.39062C111.257 8.39062 111.99 8.6725 112.468 9.10713L113.813 7.62725C112.859 6.75979 111.587 6.39062 110.133 6.39062V8.39062ZM112.475 9.11312C113.024 9.60355 113.42 10.2855 113.63 11.2221L115.581 10.7858C115.296 9.50877 114.716 8.43291 113.807 7.62125L112.475 9.11312ZM115.605 11.0039V7.70312H113.605V11.0039H115.605ZM114.605 8.70312H121.734V6.70312H114.605V8.70312ZM120.734 7.70312V32.8203H122.734V7.70312H120.734ZM120.734 32.8203C120.734 36.0218 119.989 38.0517 118.751 39.1951L120.108 40.6643C121.943 38.9691 122.734 36.2594 122.734 32.8203H120.734ZM118.745 39.2011C117.489 40.3821 115.383 41.0781 112.203 41.0781V43.0781C115.611 43.0781 118.324 42.3419 120.115 40.6583L118.745 39.2011ZM112.965 29.1328C113.394 29.1328 113.817 29.034 114.199 28.8036C114.579 28.5741 114.864 28.2474 115.071 27.8743C115.466 27.1584 115.605 26.213 115.605 25.1641H113.605C113.605 26.0943 113.471 26.6333 113.32 26.9069C113.253 27.0287 113.196 27.073 113.166 27.091C113.138 27.1079 113.083 27.1328 112.965 27.1328V29.1328ZM115.605 25.1641V15.2031H113.605V25.1641H115.605ZM115.605 15.2031C115.605 14.4674 115.389 13.7541 115.01 13.0751L113.264 14.0499C113.51 14.4907 113.605 14.8711 113.605 15.2031H115.605ZM115.019 13.0908C114.585 12.2797 113.866 11.7227 112.887 11.7227V13.7227C112.975 13.7227 113.09 13.7255 113.255 14.0342L115.019 13.0908ZM112.887 11.7227C112.432 11.7227 111.961 11.8069 111.547 12.0556C111.113 12.3161 110.822 12.7084 110.669 13.1681L112.566 13.8006C112.576 13.7695 112.584 13.7616 112.581 13.7651C112.578 13.7695 112.574 13.772 112.576 13.7706C112.585 13.7653 112.665 13.7227 112.887 13.7227V11.7227ZM110.671 13.1607C110.459 13.7816 110.363 14.4678 110.363 15.2031H112.363C112.363 14.6363 112.437 14.1767 112.563 13.8081L110.671 13.1607ZM110.363 15.2031V25.1641H112.363V15.2031H110.363ZM110.363 25.1641C110.363 25.9481 110.458 26.7053 110.651 27.4322L112.584 26.9193C112.438 26.3703 112.363 25.7862 112.363 25.1641H110.363ZM110.656 27.4505C110.796 27.9417 111.066 28.3925 111.512 28.7089C111.95 29.02 112.461 29.1328 112.965 29.1328V27.1328C112.752 27.1328 112.681 27.0861 112.67 27.0782C112.666 27.0756 112.621 27.0479 112.579 26.9011L110.656 27.4505ZM136.928 34.9688L136.179 35.6308L136.182 35.6343L136.928 34.9688ZM134.858 24.1484V23.1484H133.858V24.1484H134.858ZM141.655 24.1484H142.655V23.1484H141.655V24.1484ZM142.006 30.3203L141.117 30.7777L141.125 30.793L141.133 30.8081L142.006 30.3203ZM144.565 30.4375L143.737 29.876L143.73 29.8863L143.724 29.8967L144.565 30.4375ZM144.623 26.0039L143.663 26.2832L143.665 26.288L144.623 26.0039ZM143.53 23.9727L142.741 24.5877L142.748 24.5964L142.755 24.605L143.53 23.9727ZM141.401 21.707L140.712 22.4323L140.715 22.4346L141.401 21.707ZM138.315 18.7773L139.003 18.0521L139.001 18.05L138.315 18.7773ZM136.889 4.61719L136.142 3.95242L136.139 3.95599L136.889 4.61719ZM149.506 4.83203L148.719 5.44851L148.722 5.45227L149.506 4.83203ZM151.498 12.4883V13.4883H152.498V12.4883H151.498ZM144.506 12.4883H143.506V13.4883H144.506V12.4883ZM144.096 9.03125L143.389 9.73836L143.398 9.74698L143.406 9.75539L144.096 9.03125ZM141.811 9.10938L141.043 8.46918L141.04 8.47249L141.811 9.10938ZM143.373 13.7773L144.066 13.0562L144.062 13.052L143.373 13.7773ZM147.338 17.5859L146.646 18.3071L146.649 18.3106L147.338 17.5859ZM149.526 19.9883L148.739 20.6056L148.744 20.6115L149.526 19.9883ZM151.127 22.918L150.187 23.2571L150.188 23.2606L151.127 22.918ZM149.936 34.5781L149.098 34.0317L149.098 34.0331L149.936 34.5781ZM143.725 36.3125C140.729 36.3125 138.8 35.5654 137.675 34.3032L136.182 35.6343C137.843 37.4971 140.445 38.3125 143.725 38.3125V36.3125ZM137.678 34.3067C136.534 33.0125 135.858 30.8207 135.858 27.5078H133.858C133.858 31.0178 134.562 33.8 136.179 35.6308L137.678 34.3067ZM135.858 27.5078V24.1484H133.858V27.5078H135.858ZM134.858 25.1484H141.655V23.1484H134.858V25.1484ZM140.655 24.1484V28.4453H142.655V24.1484H140.655ZM140.655 28.4453C140.655 29.3194 140.781 30.1237 141.117 30.7777L142.896 29.863C142.763 29.6055 142.655 29.1597 142.655 28.4453H140.655ZM141.133 30.8081C141.593 31.63 142.393 31.9844 143.276 31.9844V29.9844C142.961 29.9844 142.915 29.896 142.879 29.8325L141.133 30.8081ZM143.276 31.9844C144.078 31.9844 144.914 31.7434 145.406 30.9783L143.724 29.8967C143.724 29.8969 143.721 29.9081 143.676 29.9271C143.619 29.9513 143.497 29.9844 143.276 29.9844V31.9844ZM145.392 30.999C145.815 30.3766 145.936 29.5224 145.936 28.6406H143.936C143.936 29.4255 143.81 29.7692 143.737 29.876L145.392 30.999ZM145.936 28.6406C145.936 27.528 145.827 26.5458 145.582 25.7198L143.665 26.288C143.837 26.8683 143.936 27.6439 143.936 28.6406H145.936ZM145.584 25.7246C145.334 24.8666 144.901 24.0714 144.304 23.3403L142.755 24.605C143.2 25.1499 143.496 25.7089 143.663 26.2832L145.584 25.7246ZM144.318 23.3576C143.768 22.6517 143.018 21.8578 142.087 20.9794L140.715 22.4346C141.606 23.275 142.276 23.9916 142.741 24.5877L144.318 23.3576ZM142.089 20.9818L139.003 18.0521L137.626 19.5026L140.712 22.4323L142.089 20.9818ZM139.001 18.05C136.868 16.037 135.858 13.8031 135.858 11.3164H133.858C133.858 14.4287 135.153 17.1687 137.629 19.5047L139.001 18.05ZM135.858 11.3164C135.858 8.5266 136.503 6.56713 137.639 5.27839L136.139 3.95599C134.566 5.74016 133.858 8.24684 133.858 11.3164H135.858ZM137.636 5.28194C138.767 4.01069 140.437 3.3125 142.807 3.3125V1.3125C140.021 1.3125 137.745 2.15076 136.142 3.95243L137.636 5.28194ZM142.807 3.3125C145.802 3.3125 147.671 4.1095 148.719 5.4485L150.294 4.21556C148.712 2.19519 146.114 1.3125 142.807 1.3125V3.3125ZM148.722 5.45227C149.848 6.8771 150.498 9.16319 150.498 12.4883H152.498C152.498 8.96441 151.82 6.14634 150.291 4.2118L148.722 5.45227ZM151.498 11.4883H144.506V13.4883H151.498V11.4883ZM145.506 12.4883V10.125H143.506V12.4883H145.506ZM145.506 10.125C145.506 9.45305 145.303 8.79991 144.786 8.30711L143.406 9.75539C143.436 9.78342 143.506 9.85945 143.506 10.125H145.506ZM144.803 8.32414C144.313 7.83375 143.676 7.64062 143.022 7.64062V9.64062C143.279 9.64062 143.359 9.70791 143.389 9.73836L144.803 8.32414ZM143.022 7.64062C142.287 7.64062 141.553 7.85675 141.043 8.46919L142.579 9.74956C142.59 9.737 142.663 9.64062 143.022 9.64062V7.64062ZM141.04 8.47249C140.612 8.99103 140.44 9.62455 140.44 10.2812H142.44C142.44 9.97441 142.515 9.82667 142.582 9.74626L141.04 8.47249ZM140.44 10.2812C140.44 10.9437 140.619 11.6094 140.924 12.2655L142.737 11.422C142.522 10.9583 142.44 10.5823 142.44 10.2812H140.44ZM140.924 12.2655C141.262 12.9929 141.881 13.7399 142.685 14.5026L144.062 13.052C143.329 12.3565 142.92 11.8144 142.737 11.422L140.924 12.2655ZM142.681 14.4985L146.646 18.3071L148.031 16.8648L144.066 13.0562L142.681 14.4985ZM146.649 18.3106C147.409 19.0331 148.105 19.798 148.739 20.6056L150.313 19.371C149.618 18.4858 148.856 17.6492 148.027 16.8612L146.649 18.3106ZM148.744 20.6115C149.332 21.35 149.816 22.2281 150.187 23.2571L152.068 22.5789C151.632 21.3683 151.047 20.2932 150.308 19.3651L148.744 20.6115ZM150.188 23.2606C150.54 24.226 150.733 25.4566 150.733 26.9805H152.733C152.733 25.3012 152.522 23.8235 152.067 22.5753L150.188 23.2606ZM150.733 26.9805C150.733 30.1021 150.151 32.4181 149.098 34.0317L150.773 35.1246C152.116 33.0663 152.733 30.3171 152.733 26.9805H150.733ZM149.098 34.0331C148.16 35.4754 146.477 36.3125 143.725 36.3125V38.3125C146.885 38.3125 149.342 37.3267 150.774 35.1231L149.098 34.0331ZM156.81 9.87109L157.537 10.5577L157.54 10.5548L156.81 9.87109ZM169.681 9.87109L168.952 10.5548L168.954 10.5577L169.681 9.87109ZM164.486 31.2969L163.631 30.7786L163.626 30.7863L164.486 31.2969ZM161.966 31.2969L161.1 31.7958L161.109 31.8115L161.118 31.8269L161.966 31.2969ZM163.236 36.3125C160.483 36.3125 158.6 35.6002 157.394 34.3482C156.181 33.0892 155.486 31.1128 155.486 28.2305H153.486C153.486 31.4028 154.25 33.9674 155.953 35.7358C157.664 37.5112 160.155 38.3125 163.236 38.3125V36.3125ZM155.486 28.2305V16.4727H153.486V28.2305H155.486ZM155.486 16.4727C155.486 13.9075 156.2 11.9732 157.537 10.5577L156.083 9.18447C154.321 11.0502 153.486 13.517 153.486 16.4727H155.486ZM157.54 10.5548C158.862 9.14395 160.716 8.39062 163.236 8.39062V6.39062C160.287 6.39062 157.857 7.29095 156.08 9.18734L157.54 10.5548ZM163.236 8.39062C165.77 8.39062 167.63 9.14493 168.952 10.5548L170.411 9.18734C168.633 7.28997 166.197 6.39062 163.236 6.39062V8.39062ZM168.954 10.5577C170.291 11.9732 171.005 13.9075 171.005 16.4727H173.005C173.005 13.517 172.17 11.0502 170.408 9.18447L168.954 10.5577ZM171.005 16.4727V28.2305H173.005V16.4727H171.005ZM171.005 28.2305C171.005 31.1123 170.309 33.0884 169.094 34.3474C167.884 35.5998 165.996 36.3125 163.236 36.3125V38.3125C166.322 38.3125 168.819 37.5115 170.532 35.7366C172.24 33.9683 173.005 31.4034 173.005 28.2305H171.005ZM163.236 32.9219C164.088 32.9219 164.878 32.5952 165.346 31.8074L163.626 30.7863C163.599 30.8319 163.555 30.9219 163.236 30.9219V32.9219ZM165.341 31.8152C165.72 31.1894 165.877 30.4566 165.877 29.6758H163.877C163.877 30.1971 163.772 30.545 163.631 30.7786L165.341 31.8152ZM165.877 29.6758V15.3594H163.877V29.6758H165.877ZM165.877 15.3594C165.877 14.4317 165.734 13.5642 165.308 12.9006C164.834 12.1612 164.091 11.8008 163.236 11.8008V13.8008C163.475 13.8008 163.552 13.8668 163.625 13.9802C163.746 14.1696 163.877 14.5813 163.877 15.3594H165.877ZM163.236 11.8008C162.381 11.8008 161.638 12.1612 161.164 12.9006C160.738 13.5642 160.595 14.4317 160.595 15.3594H162.595C162.595 14.5813 162.726 14.1696 162.847 13.9802C162.92 13.8668 162.997 13.8008 163.236 13.8008V11.8008ZM160.595 15.3594V29.6758H162.595V15.3594H160.595ZM160.595 29.6758C160.595 30.4487 160.742 31.1741 161.1 31.7958L162.833 30.7979C162.696 30.5603 162.595 30.205 162.595 29.6758H160.595ZM161.118 31.8269C161.599 32.596 162.383 32.9219 163.236 32.9219V30.9219C162.917 30.9219 162.855 30.8311 162.814 30.7669L161.118 31.8269ZM177.493 9.87109L178.22 10.5577L178.223 10.5548L177.493 9.87109ZM190.364 9.87109L189.634 10.5548L189.637 10.5577L190.364 9.87109ZM185.169 31.2969L184.314 30.7786L184.309 30.7863L185.169 31.2969ZM182.649 31.2969L181.783 31.7958L181.792 31.8115L181.801 31.8269L182.649 31.2969ZM183.919 36.3125C181.166 36.3125 179.283 35.6002 178.076 34.3482C176.863 33.0892 176.169 31.1128 176.169 28.2305H174.169C174.169 31.4028 174.932 33.9674 176.636 35.7358C178.347 37.5112 180.838 38.3125 183.919 38.3125V36.3125ZM176.169 28.2305V16.4727H174.169V28.2305H176.169ZM176.169 16.4727C176.169 13.9075 176.883 11.9732 178.22 10.5577L176.766 9.18447C175.004 11.0502 174.169 13.517 174.169 16.4727H176.169ZM178.223 10.5548C179.545 9.14395 181.399 8.39062 183.919 8.39062V6.39062C180.97 6.39062 178.54 7.29095 176.763 9.18734L178.223 10.5548ZM183.919 8.39062C186.453 8.39062 188.313 9.14493 189.634 10.5548L191.094 9.18734C189.316 7.28997 186.879 6.39062 183.919 6.39062V8.39062ZM189.637 10.5577C190.974 11.9732 191.688 13.9075 191.688 16.4727H193.688C193.688 13.517 192.853 11.0502 191.091 9.18447L189.637 10.5577ZM191.688 16.4727V28.2305H193.688V16.4727H191.688ZM191.688 28.2305C191.688 31.1123 190.992 33.0884 189.777 34.3474C188.567 35.5998 186.679 36.3125 183.919 36.3125V38.3125C187.005 38.3125 189.501 37.5115 191.215 35.7366C192.923 33.9683 193.688 31.4034 193.688 28.2305H191.688ZM183.919 32.9219C184.771 32.9219 185.561 32.5952 186.029 31.8074L184.309 30.7863C184.282 30.8319 184.238 30.9219 183.919 30.9219V32.9219ZM186.024 31.8152C186.403 31.1894 186.559 30.4566 186.559 29.6758H184.559C184.559 30.1971 184.455 30.545 184.314 30.7786L186.024 31.8152ZM186.559 29.6758V15.3594H184.559V29.6758H186.559ZM186.559 15.3594C186.559 14.4317 186.416 13.5642 185.991 12.9006C185.517 12.1612 184.774 11.8008 183.919 11.8008V13.8008C184.157 13.8008 184.235 13.8668 184.307 13.9802C184.429 14.1696 184.559 14.5813 184.559 15.3594H186.559ZM183.919 11.8008C183.064 11.8008 182.321 12.1612 181.846 12.9006C181.421 13.5642 181.278 14.4317 181.278 15.3594H183.278C183.278 14.5813 183.409 14.1696 183.53 13.9802C183.603 13.8668 183.68 13.8008 183.919 13.8008V11.8008ZM181.278 15.3594V29.6758H183.278V15.3594H181.278ZM181.278 29.6758C181.278 30.4487 181.425 31.1741 181.783 31.7958L183.516 30.7979C183.379 30.5603 183.278 30.205 183.278 29.6758H181.278ZM181.801 31.8269C182.282 32.596 183.065 32.9219 183.919 32.9219V30.9219C183.6 30.9219 183.537 30.8311 183.497 30.7669L181.801 31.8269ZM196.086 37H195.086V38H196.086V37ZM196.086 7.70312V6.70312H195.086V7.70312H196.086ZM203.078 7.70312H204.078V6.70312H203.078V7.70312ZM203.078 11.4336H202.078L204.052 11.6601L203.078 11.4336ZM204.523 8.58203L203.781 7.91239L203.78 7.91307L204.523 8.58203ZM211.906 9.26562L211.098 9.85481L211.102 9.86025L211.906 9.26562ZM213.293 37V38H214.293V37H213.293ZM206.398 37H205.398V38H206.398V37ZM206.047 13.543L205.143 13.9711L205.148 13.9804L206.047 13.543ZM203.645 13.3672L202.821 12.7994L202.817 12.8057L203.645 13.3672ZM203.176 14.7539L204.169 14.8721L204.169 14.8694L203.176 14.7539ZM203.078 37V38H204.078V37H203.078ZM197.086 37V7.70312H195.086V37H197.086ZM196.086 8.70312H203.078V6.70312H196.086V8.70312ZM202.078 7.70312V11.4336H204.078V7.70312H202.078ZM204.052 11.6601C204.278 10.6891 204.687 9.89508 205.267 9.251L203.78 7.91307C202.954 8.83148 202.399 9.93851 202.104 11.2071L204.052 11.6601ZM205.266 9.25167C205.758 8.70603 206.456 8.39062 207.492 8.39062V6.39062C206.002 6.39062 204.721 6.86949 203.781 7.91239L205.266 9.25167ZM207.492 8.39062C209.314 8.39062 210.431 8.94031 211.098 9.8548L212.714 8.67645C211.558 7.09094 209.733 6.39062 207.492 6.39062V8.39062ZM211.102 9.86025C211.858 10.8815 212.293 12.3588 212.293 14.4023H214.293C214.293 12.097 213.804 10.1497 212.71 8.671L211.102 9.86025ZM212.293 14.4023V37H214.293V14.4023H212.293ZM213.293 36H206.398V38H213.293V36ZM207.398 37V15.125H205.398V37H207.398ZM207.398 15.125C207.398 14.4112 207.251 13.7329 206.946 13.1055L205.148 13.9804C205.311 14.3166 205.398 14.6929 205.398 15.125H207.398ZM206.951 13.1149C206.764 12.7201 206.483 12.374 206.091 12.1337C205.702 11.8952 205.268 11.8008 204.836 11.8008V13.8008C204.977 13.8008 205.031 13.8301 205.046 13.8389C205.057 13.846 205.096 13.8711 205.143 13.9711L206.951 13.1149ZM204.836 11.8008C204.035 11.8008 203.301 12.1038 202.821 12.7995L204.468 13.9349C204.509 13.8754 204.569 13.8008 204.836 13.8008V11.8008ZM202.817 12.8057C202.458 13.3354 202.261 13.9621 202.182 14.6384L204.169 14.8694C204.221 14.4259 204.337 14.1281 204.472 13.9287L202.817 12.8057ZM202.183 14.6357C202.113 15.2215 202.078 15.8079 202.078 16.3945H204.078C204.078 15.8874 204.108 15.38 204.169 14.8721L202.183 14.6357ZM202.078 16.3945V37H204.078V16.3945H202.078ZM203.078 36H196.086V38H203.078V36Z" fill="#832A7C" mask="url(#path-1-inside-1_35_69)"/>
</g>
<defs>
<filter id="filter0_d_35_69" x="0.25" y="0.0859375" width="214.043" height="46.9922" filterUnits="userSpaceOnUse" color-interpolation-filters="sRGB">
<feFlood flood-opacity="0" result="BackgroundImageFix"/>
<feColorMatrix in="SourceAlpha" type="matrix" values="0 0 0 0 0 0 0 0 0 0 0 0 0 0 0 0 0 0 127 0" result="hardAlpha"/>
<feOffset dy="4"/>
<feGaussianBlur stdDeviation="0.5"/>
<feComposite in2="hardAlpha" operator="out"/>
<feColorMatrix type="matrix" values="0 0 0 0 0.996078 0 0 0 0 0 0 0 0 0 0.917647 0 0 0 1 0"/>
<feBlend mode="normal" in2="BackgroundImageFix" result="effect1_dropShadow_35_69"/>
<feBlend mode="normal" in="SourceGraphic" in2="effect1_dropShadow_35_69" result="shape"/>
</filter>
</defs>
</svg>
